<svg width="745" height="651" viewBox="0 0 745 651" fill="none" xmlns="http://www.w3.org/2000/svg">
<line y1="-0.5" x2="90.0674" y2="-0.5" transform="matrix(-0.775912 0.630841 -0.588445 -0.808537 582.728 304.545)" stroke="#586176"/>
<line y1="-0.5" x2="32.8277" y2="-0.5" transform="matrix(-0.753276 0.657704 -0.615807 -0.787897 684.867 242.045)" stroke="#586176"/>
<line y1="-0.5" x2="32.8277" y2="-0.5" transform="matrix(-0.753276 0.657704 -0.615807 -0.787897 582.728 0)" stroke="#586176"/>
<line y1="-0.5" x2="45.4521" y2="-0.5" transform="matrix(-0.780597 0.625034 -0.582571 -0.81278 464.462 347.727)" stroke="#586176" stroke-opacity="0.7"/>
<line y1="-0.5" x2="45.4521" y2="-0.5" transform="matrix(-0.780597 0.625034 -0.582571 -0.81278 97.8381 607.955)" stroke="#586176" stroke-opacity="0.7"/>
<line y1="-0.5" x2="90.0674" y2="-0.5" transform="matrix(-0.775912 0.630841 -0.588445 -0.808537 652.613 180.682)" stroke="#586176"/>
<line y1="-0.5" x2="90.0674" y2="-0.5" transform="matrix(-0.775912 0.630841 -0.588445 -0.808537 744 276.136)" stroke="#586176"/>
<line y1="-0.5" x2="61.7074" y2="-0.5" transform="matrix(-0.714355 0.699784 -0.659313 -0.751869 583.803 428.409)" stroke="#586176"/>
<line y1="-0.5" x2="18.7725" y2="-0.5" transform="matrix(-0.687269 0.726403 -0.687269 -0.726403 652.613 385.227)" stroke="#586176" stroke-opacity="0.7"/>
<line y1="-0.5" x2="18.7725" y2="-0.5" transform="matrix(-0.687269 0.726403 -0.687269 -0.726403 256.96 359.091)" stroke="#586176" stroke-opacity="0.7"/>
<line y1="-0.5" x2="21.2643" y2="-0.5" transform="matrix(-0.808977 0.58784 -0.545261 -0.838266 503.168 547.727)" stroke="#586176"/>
<line y1="-0.5" x2="18.7725" y2="-0.5" transform="matrix(-0.687269 0.726403 -0.687269 -0.726403 237.607 222.727)" stroke="#586176" stroke-opacity="0.7"/>
<line y1="-0.5" x2="18.7725" y2="-0.5" transform="matrix(-0.687269 0.726403 -0.687269 -0.726403 301.04 614.773)" stroke="#586176" stroke-opacity="0.7"/>
<line y1="-0.5" x2="18.7725" y2="-0.5" transform="matrix(-0.687269 0.726403 -0.687269 -0.726403 558 112.5)" stroke="#586176" stroke-opacity="0.7"/>
<line y1="-0.5" x2="69.5269" y2="-0.5" transform="matrix(-0.742259 0.670114 -0.628553 -0.777767 688.093 456.818)" stroke="#586176"/>
<line y1="-0.5" x2="39.8306" y2="-0.5" transform="matrix(-0.728809 0.684718 -0.643642 -0.765327 590.254 553.409)" stroke="#586176" stroke-opacity="0.7"/>
<line y1="-0.5" x2="90.0674" y2="-0.5" transform="matrix(-0.775912 0.630841 -0.588445 -0.808537 438.659 593.182)" stroke="#586176"/>
<line y1="-0.5" x2="35.1993" y2="-0.5" transform="matrix(-0.763613 0.645675 -0.603516 -0.797351 403.179 536.364)" stroke="#586176" stroke-opacity="0.7"/>
<line y1="-0.5" x2="45.4521" y2="-0.5" transform="matrix(-0.780597 0.625034 -0.582571 -0.81278 478.439 201.136)" stroke="#586176"/>
<line y1="-0.5" x2="39.8306" y2="-0.5" transform="matrix(-0.728809 0.684718 -0.643642 -0.765327 165.572 480.682)" stroke="#586176"/>
<line y1="-0.5" x2="35.1993" y2="-0.5" transform="matrix(-0.763613 0.645675 -0.603516 -0.797351 376.301 336.364)" stroke="#586176"/>
<line y1="-0.5" x2="90.0674" y2="-0.5" transform="matrix(-0.775912 0.630841 -0.588445 -0.808537 479.514 428.409)" stroke="#586176"/>
<line y1="-0.5" x2="90.0674" y2="-0.5" transform="matrix(-0.775912 0.630841 -0.588445 -0.808537 335.445 428.409)" stroke="#586176"/>
<line y1="-0.5" x2="90.0674" y2="-0.5" transform="matrix(-0.775912 0.630841 -0.588445 -0.808537 250.509 547.727)" stroke="#586176"/>
<line y1="-0.5" x2="90.0674" y2="-0.5" transform="matrix(-0.775912 0.630841 -0.588445 -0.808537 69.8844 519.318)" stroke="#586176"/>
<line y1="-0.5" x2="90.0674" y2="-0.5" transform="matrix(-0.775912 0.630841 -0.588445 -0.808537 660.139 593.182)" stroke="#586176"/>
<line y1="-0.5" x2="90.0674" y2="-0.5" transform="matrix(-0.775912 0.630841 -0.588445 -0.808537 727.873 30.6818)" stroke="#586176"/>
</svg>
