<svg width="45" height="45" viewBox="0 0 45 45" fill="none" xmlns="http://www.w3.org/2000/svg">
<path d="M33.0248 29.0922C35.2488 26.0643 36.5625 22.3262 36.5625 18.2812C36.5625 8.18479 28.3777 0 18.2812 0C8.18479 0 0 8.18479 0 18.2812C0 28.3777 8.18479 36.5625 18.2812 36.5625C22.3273 36.5625 26.0663 35.2481 29.0946 33.023L29.0922 33.0248C29.1751 33.1373 29.2675 33.245 29.3693 33.3468L40.1988 44.1762C41.2971 45.2746 43.0779 45.2746 44.1762 44.1762C45.2746 43.0779 45.2746 41.2971 44.1762 40.1988L33.3468 29.3693C33.245 29.2675 33.1373 29.1751 33.0248 29.0922ZM33.75 18.2812C33.75 26.8244 26.8244 33.75 18.2812 33.75C9.7381 33.75 2.8125 26.8244 2.8125 18.2812C2.8125 9.7381 9.7381 2.8125 18.2812 2.8125C26.8244 2.8125 33.75 9.7381 33.75 18.2812Z" fill="#0F2637"/>
</svg>
